<svg viewBox="0 0 207 35" xmlns="http://www.w3.org/2000/svg" fill-rule="evenodd" clip-rule="evenodd" stroke-linejoin="round" stroke-miterlimit="1.414"><path fill="none" d="M0 0h206.056v35H0z"/><g fill-rule="nonzero"><path d="M22.994 17.479h-5.43c0 1.855.297 3.626.848 5.292 2.567-.422 4.54-2.614 4.582-5.292M35 18.386c-.339 6.03-3.755 11.237-8.697 14.084 2.588 1.476 5.6 2.34 8.697 2.34V18.386z" fill="#6a6a6a"/><path d="M12.091 17.479H.064A17.34 17.34 0 005.176 29.75l8.506-8.455a5.534 5.534 0 01-1.591-3.816" fill="#8b8b8a"/><path d="M17.542 22.855a5.546 5.546 0 01-3.839-1.56L5.197 29.75c3.161 3.12 7.53 5.081 12.345 5.081.022 0-.021 0 0 0V22.855c-.021 0 .022 0 0 0" fill="#3c3c3b"/><path d="M17.606 11.955c.021 0 0 0 0 0V0c-.021 0 .021 0 0 0A17.605 17.605 0 005.133 5.145l8.485 8.475c1.018-1.012 2.461-1.665 3.988-1.665" fill="#292627"/><path d="M12.091 17.395a5.49 5.49 0 011.548-3.796L5.133 5.123A17.327 17.327 0 00.042 17.395v.084h12.049v-.084" fill="#575756"/><path d="M21.403 13.557l8.506-8.455A17.422 17.422 0 0017.627 0v11.955c1.464.021 2.8.632 3.776 1.602" fill="#7c7b7b"/><path d="M18.391 22.771a5.85 5.85 0 01-.87.063v11.955c3.182 0 6.194-.864 8.761-2.34a17.752 17.752 0 01-3.627-2.741 17.37 17.37 0 01-4.264-6.937" fill="#6f6f6e"/><path d="M35 18.386v-.907H22.994a5.442 5.442 0 01-4.582 5.292 17.28 17.28 0 004.264 6.937 17.806 17.806 0 003.627 2.741c4.942-2.847 8.358-8.054 8.697-14.063" fill="#292627"/><path d="M56.275 18.2v6.289c-1.187.755-3.137 1.178-4.599 1.178-4.133 0-6.506-3.089-6.506-6.711 0-3.778 2.628-6.712 6.336-6.712 2.226 0 3.582.623 4.536 1.667l-1.166 1.311c-.996-1-2.14-1.355-3.37-1.355-2.776 0-4.577 2.289-4.577 5.089 0 2.888 2.055 5.088 4.726 5.088 1.144 0 2.246-.222 2.988-.666v-3.556h-2.691V18.2h4.323z"/><path d="M51.676 25.8c-3.921 0-6.655-2.822-6.655-6.844 0-3.889 2.777-6.845 6.464-6.845 2.098 0 3.561.533 4.642 1.711l.084.089-1.335 1.511-.106-.089c-.869-.889-1.95-1.311-3.285-1.311-2.585 0-4.45 2.089-4.45 4.934 0 2.822 1.971 4.933 4.599 4.933 1.123 0 2.14-.222 2.861-.6v-3.333h-2.692v-1.912h4.62v6.512l-.063.044c-1.293.822-3.328 1.2-4.684 1.2zm-.17-13.4c-3.602 0-6.209 2.756-6.209 6.556 0 3.866 2.628 6.555 6.379 6.555 1.293 0 3.221-.355 4.472-1.111v-6.067h-4.091v1.334h2.692v3.777l-.063.045c-.742.444-1.866.689-3.052.689-2.777 0-4.854-2.245-4.854-5.222 0-3.023 1.992-5.223 4.726-5.223 1.357 0 2.459.423 3.37 1.289l.996-1.111c-1.017-1.022-2.416-1.511-4.366-1.511zm10.364 4.178c2.416 0 4.324 2 4.324 4.489s-1.908 4.489-4.324 4.489-4.323-2-4.323-4.489 1.907-4.489 4.323-4.489zm0 7.466c1.653 0 2.671-1.244 2.671-2.977 0-1.734-1.039-2.978-2.671-2.978-1.653 0-2.67 1.244-2.67 2.978 0 1.733 1.017 2.977 2.67 2.977z"/><path d="M61.87 25.689c-2.501 0-4.451-2.022-4.451-4.622s1.95-4.623 4.451-4.623c2.501 0 4.451 2.023 4.451 4.623.021 2.6-1.95 4.622-4.451 4.622zm0-8.978c-2.352 0-4.196 1.911-4.196 4.356 0 2.444 1.844 4.355 4.196 4.355 2.353 0 4.197-1.911 4.197-4.355 0-2.445-1.844-4.356-4.197-4.356zm0 7.467c-1.674 0-2.819-1.245-2.819-3.111 0-1.867 1.124-3.111 2.819-3.111 1.674 0 2.819 1.244 2.819 3.111 0 1.866-1.145 3.111-2.819 3.111zm0-5.956c-1.526 0-2.543 1.134-2.543 2.822 0 1.689 1.017 2.823 2.543 2.823 1.526 0 2.543-1.134 2.543-2.823 0-1.666-1.017-2.822-2.543-2.822zm9.537-1.644c2.416 0 4.324 2 4.324 4.489s-1.908 4.489-4.324 4.489-4.323-2-4.323-4.489 1.907-4.489 4.323-4.489zm0 7.466c1.653 0 2.671-1.244 2.671-2.977 0-1.734-1.039-2.978-2.671-2.978-1.653 0-2.67 1.244-2.67 2.978 0 1.733 1.017 2.977 2.67 2.977z"/><path d="M71.407 25.689c-2.501 0-4.472-2.022-4.472-4.622s1.95-4.623 4.472-4.623c2.501 0 4.472 2.023 4.472 4.623s-1.971 4.622-4.472 4.622zm0-8.978c-2.352 0-4.196 1.911-4.196 4.356 0 2.444 1.844 4.355 4.196 4.355 2.353 0 4.197-1.911 4.197-4.355 0-2.445-1.844-4.356-4.197-4.356zm0 7.467c-1.674 0-2.818-1.245-2.818-3.111 0-1.867 1.123-3.111 2.818-3.111 1.675 0 2.819 1.244 2.819 3.111 0 1.866-1.123 3.111-2.819 3.111zm0-5.956c-1.526 0-2.543 1.134-2.543 2.822 0 1.689 1.017 2.823 2.543 2.823 1.526 0 2.544-1.134 2.544-2.823 0-1.666-1.018-2.822-2.544-2.822zm13.797 7.111h-1.547v-1.222h-.042c-.594.911-1.738 1.445-2.84 1.445-2.522 0-4.133-1.956-4.133-4.489 0-2.556 1.632-4.489 4.133-4.489 1.166 0 2.289.555 2.84 1.444h.042v-5.644h1.547v12.955zm-1.547-4.266c0-1.734-1.038-2.978-2.67-2.978-1.653 0-2.671 1.244-2.671 2.978 0 1.733 1.039 2.977 2.671 2.977 1.653 0 2.67-1.244 2.67-2.977z"/><path d="M80.796 25.689c-2.501 0-4.281-1.911-4.281-4.622 0-2.734 1.759-4.623 4.281-4.623 1.081 0 2.12.467 2.734 1.223v-5.445h1.823v13.245H83.53v-1c-.636.755-1.674 1.222-2.734 1.222zm0-8.978c-2.352 0-4.005 1.778-4.005 4.356 0 2.555 1.653 4.355 4.005 4.355 1.102 0 2.183-.533 2.734-1.378l.043-.066h.19l.021.133V25.2h1.293V12.511h-1.293v5.645h-.211l-.064-.067c-.509-.822-1.59-1.378-2.713-1.378zm.191 7.467c-1.674 0-2.819-1.245-2.819-3.111 0-1.867 1.123-3.111 2.819-3.111 1.674 0 2.819 1.244 2.819 3.111 0 1.866-1.145 3.111-2.819 3.111zm0-5.956c-1.526 0-2.543 1.134-2.543 2.822 0 1.689 1.017 2.823 2.543 2.823 1.526 0 2.543-1.134 2.543-2.823 0-1.666-1.017-2.822-2.543-2.822zm6.273-5.733h3.71c5.128 0 6.4 4.111 6.4 6.467 0 3.266-2.31 6.377-6.676 6.377H87.26V12.489zm1.653 11.222h1.547c2.777 0 5.151-1.6 5.151-4.755 0-1.623-.806-4.845-4.748-4.845h-1.928v9.6h-.022z"/><path d="M90.694 25.467h-3.561V12.333h3.836c5.15 0 6.528 4.156 6.528 6.6 0 3.267-2.332 6.534-6.803 6.534zm-3.307-.267h3.307c4.493 0 6.527-3.244 6.527-6.244 0-.645-.169-6.334-6.252-6.334h-3.582V25.2zm3.073-1.356h-1.674v-9.888h2.077c4.748 0 4.896 4.488 4.896 5-.02 3.377-2.67 4.888-5.299 4.888zm-1.42-.266h1.42c2.311 0 5.023-1.2 5.023-4.622 0-.489-.127-4.712-4.62-4.712h-1.8v9.334h-.023zm9.538-5.734c.87-.844 2.098-1.266 3.221-1.266 2.395 0 3.412 1.378 3.412 2.844v4.356c0 .6.021 1.089.064 1.555h-1.378c-.042-.422-.042-.866-.042-1.289h-.043c-.678 1.089-1.61 1.512-2.86 1.512-1.505 0-2.819-.889-2.819-2.556 0-2.2 2.013-2.956 4.493-2.956h1.123v-.355c0-.889-.615-1.8-1.95-1.8-1.187 0-1.759.533-2.31.978l-.91-1.023zm4.366 3.378c-1.463 0-3.243.267-3.243 1.645 0 .977.678 1.377 1.76 1.377 1.716 0 2.31-1.333 2.31-2.488v-.534h-.827z"/><path d="M100.973 25.689c-1.738 0-2.946-1.111-2.946-2.689 0-2 1.632-3.089 4.62-3.089h.996v-.222c0-.8-.572-1.667-1.802-1.667-1.059 0-1.61.422-2.119.845l-.212.155-1.102-1.2.106-.089c.827-.822 2.056-1.311 3.327-1.311 2.607 0 3.54 1.534 3.54 2.978v4.378c0 .644.021 1.111.063 1.533l.022.156h-1.654v-.134c-.02-.311-.042-.622-.042-.933-.699.889-1.589 1.289-2.797 1.289zm1.653-5.511c-1.993 0-4.345.489-4.345 2.822 0 1.667 1.356 2.422 2.692 2.422 1.271 0 2.12-.444 2.734-1.444l.042-.067h.212l.042.133c0 .378.021.778.043 1.156h1.102c-.043-.378-.043-.822-.043-1.4v-4.356c0-1.311-.847-2.711-3.264-2.711-1.144 0-2.267.423-3.03 1.134l.742.822.021-.022c.53-.423 1.144-.911 2.29-.911 1.42 0 2.076 1 2.076 1.933v.489h-1.314zM101.44 24.4c-1.208 0-1.886-.533-1.886-1.533 0-.823.593-1.778 3.391-1.778h.953v.689c0 1.2-.636 2.622-2.458 2.622zm1.505-3.022c-1.42 0-3.116.266-3.116 1.511 0 .822.551 1.244 1.632 1.244 1.611 0 2.183-1.2 2.183-2.355v-.4h-.699zm8.647-3.178h-2.226v3.867c0 .955 0 1.955 1.166 1.955.36 0 .784-.044 1.102-.244v1.466c-.36.223-1.08.289-1.399.289-2.395 0-2.416-1.533-2.416-2.889V18.2h-1.78v-1.4h1.78v-2.4h1.547v2.4h2.226v1.4z"/><path d="M110.255 25.689c-2.564 0-2.564-1.756-2.564-3.045v-4.311h-1.78v-1.666h1.78v-2.4h1.801v2.4h2.226v1.689h-2.226v3.733c0 1.133.064 1.822 1.04 1.822.317 0 .741-.044 1.037-.222l.212-.133v1.822l-.063.044c-.424.222-1.208.267-1.463.267zm-4.069-7.622h1.78v4.6c0 1.289 0 2.755 2.29 2.755.338 0 .932-.066 1.25-.244v-1.156c-.318.134-.7.178-.975.178-1.293 0-1.293-1.178-1.293-2.111v-4.022h2.225v-1.134h-2.225v-2.4h-1.272v2.4h-1.78v1.134zm6.931-.223c.847-.844 2.098-1.266 3.221-1.266 2.395 0 3.391 1.378 3.391 2.844v4.356c0 .6.021 1.089.064 1.555h-1.378c-.042-.422-.042-.866-.042-1.289h-.043c-.678 1.089-1.61 1.512-2.84 1.512-1.505 0-2.819-.889-2.819-2.556 0-2.2 2.014-2.956 4.493-2.956h1.124v-.355c0-.889-.615-1.8-1.929-1.8-1.187 0-1.759.533-2.33.978l-.912-1.023zm4.365 3.378c-1.462 0-3.242.267-3.242 1.645 0 .977.678 1.377 1.76 1.377 1.716 0 2.31-1.333 2.31-2.488v-.534h-.828z"/><path d="M115.49 25.689c-1.738 0-2.946-1.111-2.946-2.689 0-2 1.632-3.089 4.62-3.089h.997v-.222c0-.8-.573-1.667-1.802-1.667-1.06 0-1.61.422-2.119.845l-.212.155-1.102-1.2.106-.089c.826-.822 2.056-1.311 3.327-1.311 2.607 0 3.54 1.534 3.54 2.978v4.378c0 .644.021 1.111.063 1.533l.021.156h-1.653v-.134c-.02-.311-.042-.622-.042-.933-.678.889-1.569 1.289-2.798 1.289zm1.674-5.511c-1.992 0-4.344.489-4.344 2.822 0 1.667 1.356 2.422 2.691 2.422 1.272 0 2.12-.444 2.734-1.444l.043-.067h.212l.042.133c0 .378.021.778.042 1.156h1.103a12.438 12.438 0 01-.064-1.4v-4.356c0-1.311-.848-2.711-3.264-2.711-1.144 0-2.268.423-3.052 1.134l.742.822.021-.022c.53-.423 1.145-.911 2.29-.911 1.42 0 2.076 1 2.076 1.933v.489h-1.272zm-1.186 4.222c-1.208 0-1.887-.533-1.887-1.533 0-.823.594-1.778 3.37-1.778h.954v.689c.021 1.2-.636 2.622-2.437 2.622zm1.504-3.022c-1.42 0-3.115.266-3.115 1.511 0 .822.551 1.244 1.611 1.244 1.61 0 2.183-1.2 2.183-2.355v-.4h-.679z"/></g><text x="145.125" y="26.324" font-family="'OpenSans-SemiBold','Open Sans',sans-serif" font-weight="600" font-size="18" fill="#94a1ae" transform="translate(-18.943 -.205)">Rub<tspan x="178.91px 188.56px" y="26.324px 26.324px">yS</tspan>DK</text></svg>